<?xml version="1.0" encoding="UTF-8" standalone="no"?>
<!-- Created with Inkscape (http://www.inkscape.org/) -->

<svg
   xmlns:dc="http://purl.org/dc/elements/1.1/"
   xmlns:cc="http://creativecommons.org/ns#"
   xmlns:rdf="http://www.w3.org/1999/02/22-rdf-syntax-ns#"
   xmlns:svg="http://www.w3.org/2000/svg"
   xmlns="http://www.w3.org/2000/svg"
   xmlns:sodipodi="http://sodipodi.sourceforge.net/DTD/sodipodi-0.dtd"
   xmlns:inkscape="http://www.inkscape.org/namespaces/inkscape"
   width="1in"
   height="1in"
   viewBox="0 0 25.400001 25.400001"
   version="1.1"
   id="svg8"
   inkscape:version="0.92.1 r"
   sodipodi:docname="icon.svg"
   inkscape:export-filename="/home/jack/app/shear/doc/icon.png"
   inkscape:export-xdpi="97.489998"
   inkscape:export-ydpi="97.489998">
  <defs
     id="defs2">
    <marker
       style="overflow:visible"
       id="Scissors"
       orient="auto"
       refY="0"
       refX="0">
      <path
         style="marker-start:none"
         id="schere"
         d="M 9.0898857,-3.6061018 C 8.1198849,-4.7769976 6.3697607,-4.7358294 5.0623558,-4.2327734 l -8.2124046,3.0779029 c -2.3882933,-1.3067135 -4.7482873,-0.9325372 -4.7482873,-1.5687873 0,-0.4973164 0.4566662,-0.3883222 0.3883068,-1.6831941 -0.065635,-1.2432767 -1.3635771,-2.1630796 -2.5903987,-2.0816435 -1.227271,-0.00735 -2.499439,0.9331613 -2.510341,2.2300611 -0.09143,1.3063864 1.007209,2.5196896 2.306764,2.6052316 1.5223406,0.2266616 4.218258,-0.6955566 5.482945,1.57086006 -0.9422847,1.73825774 -2.6140244,1.74307674 -4.1255107,1.65607034 -1.2548743,-0.072235 -2.7620933,0.2873979 -3.3606483,1.5208605 -0.578367,1.1820862 -0.0112,2.8646022 1.316749,3.226412 1.3401912,0.4918277 3.1806689,-0.129711 3.4993722,-1.6707242 0.2456585,-1.187823 -0.5953659,-1.7459574 -0.2725074,-2.1771537 0.2436135,-0.32536 1.7907806,-0.1368452 4.5471053,-1.3748244 L 5.6763468,4.2330688 C 6.8000164,4.5467672 8.1730685,4.5362646 9.1684433,3.4313614 L -0.05164093,-0.05372222 9.0898857,-3.6061018 z m -18.3078016,-1.900504 c 1.294559,0.7227998 1.1888392,2.6835702 -0.1564272,3.0632889 -1.2165179,0.423661 -2.7710269,-0.7589694 -2.3831779,-2.0774648 0.227148,-1.0818519 1.653387,-1.480632 2.5396051,-0.9858241 z m 0.056264,8.0173649 c 1.3508301,0.4988648 1.1214429,2.7844356 -0.2522207,3.091609 -0.9110594,0.3163391 -2.2135494,-0.1387976 -2.3056964,-1.2121394 -0.177609,-1.305055 1.356085,-2.4841482 2.5579171,-1.8794696 z" />
    </marker>
  </defs>
  <sodipodi:namedview
     id="base"
     pagecolor="#ffffff"
     bordercolor="#666666"
     borderopacity="1.0"
     inkscape:pageopacity="0.0"
     inkscape:pageshadow="2"
     inkscape:zoom="2.8"
     inkscape:cx="32.392092"
     inkscape:cy="48.479138"
     inkscape:document-units="mm"
     inkscape:current-layer="text31"
     showgrid="false"
     units="in"
     inkscape:window-width="1366"
     inkscape:window-height="704"
     inkscape:window-x="0"
     inkscape:window-y="27"
     inkscape:window-maximized="1"
     inkscape:pagecheckerboard="false" />
  <metadata
     id="metadata5">
    <rdf:RDF>
      <cc:Work
         rdf:about="">
        <dc:format>image/svg+xml</dc:format>
        <dc:type
           rdf:resource="http://purl.org/dc/dcmitype/StillImage" />
        <dc:title></dc:title>
      </cc:Work>
    </rdf:RDF>
  </metadata>
  <g
     inkscape:label="Layer 1"
     inkscape:groupmode="layer"
     id="layer1"
     transform="translate(0,-271.59998)">
    <g
       aria-label="SHEAR"
       style="font-style:normal;font-variant:normal;font-weight:normal;font-stretch:normal;font-size:6.5175128px;line-height:12.85398388px;font-family:Arial;-inkscape-font-specification:Arial;text-align:start;letter-spacing:0px;word-spacing:0px;text-anchor:start;fill:#000000;fill-opacity:1;stroke:none;stroke-width:0.54312605px;stroke-linecap:butt;stroke-linejoin:miter;stroke-opacity:1"
       id="text31">
      <ellipse
         style="opacity:1;vector-effect:none;fill:#1a1a1a;fill-opacity:1;fill-rule:nonzero;stroke:none;stroke-width:0.20304851px;stroke-linecap:butt;stroke-linejoin:miter;stroke-miterlimit:4;stroke-dasharray:none;stroke-dashoffset:0;stroke-opacity:1"
         id="path2411"
         cx="12.76212"
         cy="284.30463"
         rx="12.561669"
         ry="12.628487" />
      <g
         id="layer1-2"
         transform="matrix(0.26458333,0,0,0.26458333,-13.256834,20.818906)"
         inkscape:transform-center-x="2.4722432"
         inkscape:transform-center-y="3.8085909"
         style="fill:#ffffff">
        <g
           id="g4593"
           transform="matrix(1.9065228,-0.55262841,0.55262841,1.9065228,-520.61346,-778.9075)"
           style="fill:#ffffff">
          <path
             style="fill:#ffffff;marker-start:none"
             id="path4599"
             d="m 59.731665,956.40057 c -0.609784,-1.39286 -2.303491,-1.83556 -3.698902,-1.71226 l -8.742604,0.69566 c -1.935736,-1.91425 -4.307466,-2.2049 -4.132136,-2.81651 0.137044,-0.47806 0.545993,-0.24745 0.837105,-1.51102 0.279511,-1.21323 -0.714709,-2.45509 -1.916471,-2.71488 -1.177727,-0.34526 -2.659814,0.20827 -3.027677,1.45195 -0.447882,1.23061 0.273869,2.69969 1.499535,3.14003 1.400938,0.6374 4.246607,0.49379 4.837778,3.02096 -1.384807,1.41129 -2.993148,0.95525 -4.422137,0.4551 -1.186382,-0.41524 -2.734347,-0.48487 -3.649629,0.53589 -0.881717,0.97694 -0.800158,2.7506 0.376675,3.46434 1.15277,0.8421 3.093263,0.7518 3.824279,-0.64172 0.563472,-1.07414 -0.09119,-1.84242 0.337995,-2.16796 0.32384,-0.24563 1.759155,0.36194 4.749906,-0.0686 l 7.684693,5.46398 c 0.993719,0.61119 2.316503,0.97947 3.577814,0.19164 l -7.902726,-5.8909 9.766502,-0.89574 z m -17.075242,-6.87194 c 1.045256,1.05155 0.403306,2.90727 -0.994512,2.90157 -1.286163,0.072 -2.454591,-1.49318 -1.718425,-2.65375 0.516476,-0.97737 1.997384,-0.96769 2.712937,-0.24782 z m -2.155235,7.72245 c 1.161058,0.85179 0.310724,2.98566 -1.0944,2.9024 -0.962958,0.053 -2.089598,-0.7434 -1.882399,-1.80058 0.188897,-1.30347 1.988129,-2.01427 2.976799,-1.10182 z"
             inkscape:connector-curvature="0" />
        </g>
      </g>
      <path
         style="font-style:normal;font-variant:normal;font-weight:normal;font-stretch:normal;font-family:'League Spartan';-inkscape-font-specification:'League Spartan';fill:#ffffff;stroke-width:0.54312605px"
         d="M 4.9680974,281.84736 C 4.721189,281.55231 4.363906,281.32773 4.0253259,281.1842 c -0.6126462,-0.2607 -1.1210121,-0.47577 -1.1210121,-0.77558 0,-0.29329 0.2215954,-0.4823 0.6387161,-0.4823 0.5539885,0 1.0884246,0.3715 1.0884246,0.3715 l 0.495331,-0.97762 c 0,0 -0.6908562,-0.50837 -1.6684831,-0.50837 v 0 c -0.8668293,0 -1.7532111,0.63872 -1.7532111,1.64241 0,0.56051 0.3780158,1.06236 1.0232495,1.38172 0.019662,0.01 0.039262,0.0195 0.058786,0.0291"
         id="path1579"
         inkscape:connector-curvature="0" />
      <path
         style="font-style:normal;font-variant:normal;font-weight:normal;font-stretch:normal;font-family:'League Spartan';-inkscape-font-specification:'League Spartan';fill:#ffffff;stroke-width:0.54312605px"
         d="m 2.8110862,282.7828 c 0.6278556,0.27282 1.1741706,0.42493 1.1915338,0.80354 0.022991,0.50132 -0.4836473,0.55065 -0.7505848,0.5629 -0.5989818,0.0275 -1.3429229,-0.54519 -1.3429229,-0.54519 l -0.564828,1.05675 c 0,0 0.7942933,0.67473 2.0508525,0.61711 1.0482166,-0.048 2.004217,-0.54209 1.9453973,-1.82469 -0.014038,-0.30611 -0.1509994,-0.56948 -0.3515772,-0.78801"
         id="path1535"
         inkscape:connector-curvature="0"
         inkscape:transform-center-x="19.479572"
         inkscape:transform-center-y="0.92682299" />
      <path
         style="font-style:normal;font-variant:normal;font-weight:normal;font-stretch:normal;font-family:'League Spartan';-inkscape-font-specification:'League Spartan';fill:#ffffff;stroke-width:0.54312605px"
         d="m 5.8760742,282.62923 0.1115273,2.43193 1.2240069,-0.0562 -0.098829,-2.15504 v 0 l 1.7318384,-0.0794 0.098829,2.15504 1.2240072,-0.0562 -0.112096,-2.44432"
         id="path1582"
         inkscape:connector-curvature="0"
         inkscape:transform-center-x="14.801507"
         inkscape:transform-center-y="0.69661749" />
      <path
         style="font-style:normal;font-variant:normal;font-weight:normal;font-stretch:normal;font-family:'League Spartan';-inkscape-font-specification:'League Spartan';fill:#ffffff;stroke-width:0.54312605px"
         d="m 10.040176,281.83965 -1e-6,-2.93006 H 8.8148832 v 2.14426 H 7.0812247 v -2.14426 H 5.8559322 v 2.94246"
         id="path1537"
         inkscape:connector-curvature="0" />
      <path
         style="font-style:normal;font-variant:normal;font-weight:normal;font-stretch:normal;font-family:'League Spartan';-inkscape-font-specification:'League Spartan';fill:#ffffff;stroke-width:0.54312605px"
         d="m 13.8185,281.82848 -1e-6,-0.77463 h -1.772762 v -1.06887 h 1.850974 v -1.07539 0 h -3.076267 v 2.92748"
         id="path1585"
         inkscape:connector-curvature="0" />
      <path
         style="font-style:normal;font-variant:normal;font-weight:normal;font-stretch:normal;font-family:'League Spartan';-inkscape-font-specification:'League Spartan';fill:#ffffff;stroke-width:0.54312605px"
         d="m 10.834688,282.38682 0.112214,2.4469 3.073037,-0.14092 -0.04927,-1.07426 -1.84903,0.0848 -0.04957,-1.08077 1.770902,-0.0812 -0.01378,-0.30044"
         id="path1539"
         inkscape:connector-curvature="0"
         inkscape:transform-center-x="10.395958"
         inkscape:transform-center-y="0.49084166" />
      <path
         style="font-style:normal;font-variant:normal;font-weight:normal;font-stretch:normal;font-family:'League Spartan';-inkscape-font-specification:'League Spartan';fill:#ffffff;stroke-width:0.54312605px"
         d="m 18.547406,282.00994 -1.25372,0.0616 0.136411,0.31242 -1.211057,0.0556 0.106359,-0.32044 -1.256816,0.0616 -0.87989,2.50532 1.315332,-0.0603 0.347711,-1.09247 2.044754,-0.0938 0.44624,1.05605 1.315333,-0.0603 z"
         id="path2406"
         inkscape:connector-curvature="0"
         inkscape:transform-center-x="5.899893"
         inkscape:transform-center-y="0.30150665" />
      <path
         style="font-style:normal;font-variant:normal;font-weight:normal;font-stretch:normal;font-family:'League Spartan';-inkscape-font-specification:'League Spartan';fill:#ffffff;stroke-width:0.54312605px"
         d="m 16.236011,278.9097 -1.176673,2.91455 1.258322,-0.004 0.47904,-1.24901 h 0.01292 l 0.47749,1.24591 1.255221,-0.004 -1.172022,-2.90422 z"
         id="path1541"
         inkscape:connector-curvature="0" />
      <path
         style="font-style:normal;font-variant:normal;font-weight:normal;font-stretch:normal;font-family:'League Spartan';-inkscape-font-specification:'League Spartan';fill:#ffffff;stroke-width:0.54312605px"
         d="m 22.814937,281.8013 -3.067495,0.14969 0.113445,2.47374 1.223964,-0.0562 -0.09735,-2.1227 1.737899,2.04747 1.556409,-0.0714 -1.950928,-2.13548 c 0.183908,-0.0677 0.342333,-0.16765 0.48404,-0.28551 z"
         id="path2409"
         inkscape:connector-curvature="0"
         inkscape:transform-center-x="0.80864526"
         inkscape:transform-center-y="0.066336637" />
      <path
         style="font-style:normal;font-variant:normal;font-weight:normal;font-stretch:normal;font-family:'League Spartan';-inkscape-font-specification:'League Spartan';fill:#ffffff;stroke-width:0.54312605px"
         d="m 19.743807,278.9097 v 2.9006 l 3.07113,-0.009 c 0.370862,-0.28074 0.604615,-0.71568 0.604615,-1.2945 0,-1.05583 -0.755685,-1.5968 -1.752865,-1.5968 z m 1.225248,0.97772 h 0.143661 c 0.462743,0 1.016475,0.0325 1.016475,0.70383 0,0.6713 -0.553732,0.70384 -1.016475,0.70384 h -0.143661 z"
         id="path1543"
         inkscape:connector-curvature="0" />
    </g>
  </g>
</svg>
